HIERARCHY
ROOT hip
{
  OFFSET 0.00112043 5.09927 -9.65472
  CHANNELS 6 Xposition Yposition Zposition Zrotation Xrotation Yrotation
  JOINT abdomen
  {
    OFFSET 0 -1.186 -1.5018
    CHANNELS 3 Zrotation Xrotation Yrotation
    JOINT abdomen2
    {
      OFFSET 0 9.964 0.2134
      CHANNELS 3 Zrotation Xrotation Yrotation
      JOINT chest
      {
        OFFSET 0 13.134 -3.2573
        CHANNELS 3 Zrotation Xrotation Yrotation
        JOINT neck
        {
          OFFSET 0 20.686 -1.6905
          CHANNELS 3 Zrotation Xrotation Yrotation
          JOINT head
          {
            OFFSET 0 7.238 -0.1237
            CHANNELS 3 Zrotation Xrotation Yrotation
            End Site
            {
              OFFSET 0 0 0
            }
          }
        }
        JOINT lCollar
        {
          OFFSET 1.7069 20.075 5.0056
          CHANNELS 3 Zrotation Xrotation Yrotation
          JOINT lShldr
          {
            OFFSET 13.6458 -0.047 -4.849
            CHANNELS 3 Zrotation Xrotation Yrotation
            JOINT lForeArm
            {
              OFFSET 28.3255 -0.9759 2.2888
              CHANNELS 3 Zrotation Xrotation Yrotation
              JOINT lHand
              {
                OFFSET 22.1583 -0.53 10.8316
                CHANNELS 3 Zrotation Xrotation Yrotation
                JOINT lThumb1
                {
                  OFFSET 0.786 0.112 2.5817
                  CHANNELS 3 Zrotation Xrotation Yrotation
                  JOINT lThumb2
                  {
                    OFFSET 0.3601 -0.878 4.2331
                    CHANNELS 3 Zrotation Xrotation Yrotation
                    JOINT lThumb2_End
                    {
                      OFFSET 1.8127 -1.216 2.2227
                      CHANNELS 3 Zrotation Xrotation Yrotation
                      End Site
                      {
                        OFFSET 0.0181 -0.0122 0.0222
                      }
                    }
                  }
                }
                JOINT lCarpal1
                {
                  OFFSET 0.9571 1.114 1.7695
                  CHANNELS 3 Zrotation Xrotation Yrotation
                  JOINT lIndex1
                  {
                    OFFSET 4.1246 0.487 4.1451
                    CHANNELS 3 Zrotation Xrotation Yrotation
                    JOINT lIndex2
                    {
                      OFFSET 3.4052 -1.454 2.7682
                      CHANNELS 3 Zrotation Xrotation Yrotation
                      JOINT lIndex2_End
                      {
                        OFFSET 1.4531 -1.795 1.2713
                        CHANNELS 3 Zrotation Xrotation Yrotation
                        End Site
                        {
                          OFFSET 0.0145 -0.0179 0.0127
                        }
                      }
                    }
                  }
                  JOINT lMid1
                  {
                    OFFSET 5.6954 0.21 2.1184
                    CHANNELS 3 Zrotation Xrotation Yrotation
                    JOINT lMid2
                    {
                      OFFSET 3.9766 -1.54 2.3863
                      CHANNELS 3 Zrotation Xrotation Yrotation
                      JOINT lMid2_End
                      {
                        OFFSET 1.4042 -1.926 1.125
                        CHANNELS 3 Zrotation Xrotation Yrotation
                        End Site
                        {
                          OFFSET 0.014 -0.0193 0.0113
                        }
                      }
                    }
                  }
                }
                JOINT lCarpal2
                {
                  OFFSET 2.0956 0.66 -0.3894
                  CHANNELS 3 Zrotation Xrotation Yrotation
                  JOINT lRing1
                  {
                    OFFSET 5.0395 -0.09 2.4971
                    CHANNELS 3 Zrotation Xrotation Yrotation
                    JOINT lRing2
                    {
                      OFFSET 3.7921 -1.552 1.4806
                      CHANNELS 3 Zrotation Xrotation Yrotation
                      JOINT lRing2_End
                      {
                        OFFSET 1.4655 -1.808 0.9609
                        CHANNELS 3 Zrotation Xrotation Yrotation
                        End Site
                        {
                          OFFSET 0.0147 -0.0181 0.0096
                        }
                      }
                    }
                  }
                  JOINT lPinky1
                  {
                    OFFSET 4.9141 -1.269 0.3591
                    CHANNELS 3 Zrotation Xrotation Yrotation
                    JOINT lPinky2
                    {
                      OFFSET 3.1477 -1.685 0.8462
                      CHANNELS 3 Zrotation Xrotation Yrotation
                      JOINT lPinky2_End
                      {
                        OFFSET 0.8055 -1.585 0.7955
                        CHANNELS 3 Zrotation Xrotation Yrotation
                        End Site
                        {
                          OFFSET 0.0081 -0.0158 0.008
                        }
                      }
                    }
                  }
                }
              }
            }
          }
        }
        JOINT rCollar
        {
          OFFSET -1.7069 20.075 5.0056
          CHANNELS 3 Zrotation Xrotation Yrotation
          JOINT rShldr
          {
            OFFSET -13.6458 -0.047 -4.849
            CHANNELS 3 Zrotation Xrotation Yrotation
            JOINT rForeArm
            {
              OFFSET -28.3255 -0.9759 2.2888
              CHANNELS 3 Zrotation Xrotation Yrotation
              JOINT rHand
              {
                OFFSET -22.1583 -0.53 10.8316
                CHANNELS 3 Zrotation Xrotation Yrotation
                JOINT rThumb1
                {
                  OFFSET -0.786 0.112 2.5817
                  CHANNELS 3 Zrotation Xrotation Yrotation
                  JOINT rThumb2
                  {
                    OFFSET -0.3601 -0.878 4.2331
                    CHANNELS 3 Zrotation Xrotation Yrotation
                    JOINT rThumb2_End
                    {
                      OFFSET -1.8127 -1.216 2.2227
                      CHANNELS 3 Zrotation Xrotation Yrotation
                      End Site
                      {
                        OFFSET -0.0181 -0.0122 0.0222
                      }
                    }
                  }
                }
                JOINT rCarpal1
                {
                  OFFSET -0.9571 1.114 1.7695
                  CHANNELS 3 Zrotation Xrotation Yrotation
                  JOINT rIndex1
                  {
                    OFFSET -4.1246 0.487 4.1451
                    CHANNELS 3 Zrotation Xrotation Yrotation
                    JOINT rIndex2
                    {
                      OFFSET -3.4052 -1.454 2.7682
                      CHANNELS 3 Zrotation Xrotation Yrotation
                      JOINT rIndex2_End
                      {
                        OFFSET -1.4531 -1.795 1.2713
                        CHANNELS 3 Zrotation Xrotation Yrotation
                        End Site
                        {
                          OFFSET -0.0145 -0.018 0.0127
                        }
                      }
                    }
                  }
                  JOINT rMid1
                  {
                    OFFSET -5.6954 0.21 2.1184
                    CHANNELS 3 Zrotation Xrotation Yrotation
                    JOINT rMid2
                    {
                      OFFSET -3.9766 -1.54 2.3863
                      CHANNELS 3 Zrotation Xrotation Yrotation
                      JOINT rMid2_End
                      {
                        OFFSET -1.4042 -1.926 1.125
                        CHANNELS 3 Zrotation Xrotation Yrotation
                        End Site
                        {
                          OFFSET -0.014 -0.0193 0.0113
                        }
                      }
                    }
                  }
                }
                JOINT rCarpal2
                {
                  OFFSET -2.0956 0.66 -0.3894
                  CHANNELS 3 Zrotation Xrotation Yrotation
                  JOINT rRing1
                  {
                    OFFSET -5.0395 -0.09 2.4971
                    CHANNELS 3 Zrotation Xrotation Yrotation
                    JOINT rRing2
                    {
                      OFFSET -3.7921 -1.552 1.4806
                      CHANNELS 3 Zrotation Xrotation Yrotation
                      JOINT rRing2_End
                      {
                        OFFSET -1.4655 -1.808 0.9609
                        CHANNELS 3 Zrotation Xrotation Yrotation
                        End Site
                        {
                          OFFSET -0.0147 -0.0181 0.0096
                        }
                      }
                    }
                  }
                  JOINT rPinky1
                  {
                    OFFSET -4.9141 -1.269 0.3592
                    CHANNELS 3 Zrotation Xrotation Yrotation
                    JOINT rPinky2
                    {
                      OFFSET -3.1477 -1.685 0.8462
                      CHANNELS 3 Zrotation Xrotation Yrotation
                      JOINT rPinky2_End
                      {
                        OFFSET -0.8055 -1.585 0.7955
                        CHANNELS 3 Zrotation Xrotation Yrotation
                        End Site
                        {
                          OFFSET -0.0081 -0.0158 0.008
                        }
                      }
                    }
                  }
                }
              }
            }
          }
        }
      }
    }
  }
  JOINT lThigh
  {
    OFFSET 8.367 -8.2066 0.5982
    CHANNELS 3 Zrotation Xrotation Yrotation
    JOINT lShin
    {
      OFFSET 2.1923 -43.463 -0.4932
      CHANNELS 3 Zrotation Xrotation Yrotation
      JOINT lFoot
      {
        OFFSET 0.7333 -45.8593 -2.6451
        CHANNELS 3 Zrotation Xrotation Yrotation
        End Site
        {
          OFFSET 2.6618 -4.2699 12.3931
        }
      }
    }
  }
  JOINT rThigh
  {
    OFFSET -8.367 -8.2066 0.5982
    CHANNELS 3 Zrotation Xrotation Yrotation
    JOINT rShin
    {
      OFFSET -2.1923 -43.463 -0.4931
      CHANNELS 3 Zrotation Xrotation Yrotation
      JOINT rFoot
      {
        OFFSET -0.7333 -45.8593 -2.6451
        CHANNELS 3 Zrotation Xrotation Yrotation
        End Site
        {
          OFFSET -2.6618 -4.2699 12.3931
        }
      }
    }
  }
}
MOTION
Frames:	5
Frame Time:	0.0333333
-7.37477 19.8549 60.0348 -180 84.5029 -180 -0.126966 -1.95728 -0.415522 -0.268376 -3.9136 -0.836117 -0.268376 -3.91357 -0.836117 -8.99458e-006 -36.2275 -9.87999e-006 -7.38755e-007 -15.0017 -3.25246e-007 -0.759422 -13.9667 -26.3611 8.52212 -1.62791 -14.3054 31.8833 -22.4602 -18.5119 10.034 -15.5046 2.45456 0 7.15625e-015 -0 4.41391e-031 7.95139e-015 -3.18055e-015 1.59028e-015 7.95139e-015 -0 -1.59028e-015 -7.95139e-016 -3.18055e-015 3.18055e-015 -2.38542e-015 3.18055e-015 -4.41391e-031 7.95139e-015 3.18055e-015 3.18055e-015 6.36111e-015 3.18055e-015 3.18055e-015 -2.38542e-015 3.18055e-015 -4.41391e-031 7.95139e-015 3.18055e-015 3.18055e-015 6.36111e-015 3.18055e-015 -1.59028e-015 -7.95139e-016 -3.18055e-015 3.18055e-015 -2.38542e-015 3.18055e-015 -4.41391e-031 7.95139e-015 3.18055e-015 3.18055e-015 6.36111e-015 3.18055e-015 3.18055e-015 -2.38542e-015 3.18055e-015 -4.41391e-031 7.95139e-015 3.18055e-015 3.18055e-015 6.36111e-015 3.18055e-015 7.23551 0.0424262 -7.76787 106.824 14.5836 -47.0599 -0.325703 -5.72935 23.4238 36.0734 -48.8183 35.5002 -6.80407e-007 4.41372e-007 -2.45803e-007 -3.97252e-031 7.15625e-015 3.18055e-015 -3.18055e-015 3.97569e-015 3.18055e-015 -3.18055e-015 -7.95139e-016 -0 -6.80407e-007 4.41372e-007 -2.45803e-007 3.18055e-015 -7.95139e-016 -6.36111e-015 0 1.59028e-015 -0 -6.80407e-007 4.41372e-007 -2.45803e-007 3.18055e-015 -7.95139e-016 -6.36111e-015 0 1.59028e-015 -0 -3.18055e-015 -7.95139e-016 -0 -6.80407e-007 4.41372e-007 -2.45803e-007 3.18055e-015 -7.95139e-016 -6.36111e-015 0 1.59028e-015 -0 -6.80407e-007 4.41372e-007 -2.45803e-007 3.18055e-015 -7.95139e-016 -6.36111e-015 0 1.59028e-015 -0 99.8718 -39.1934 111.477 35.3774 75.9279 -41.8834 47.7849 34.9629 -71.003 -99.8266 -38.8845 -111.718 -35.5112 75.9049 42.0185 -48.1933 34.7428 71.2798 
-7.37488 19.9278 60.0021 -180 84.0016 -180 -0.125581 -2.16171 -0.416651 -0.267189 -4.32246 -0.838943 -0.267189 -4.32245 -0.838944 4.53642e-006 -35.9526 -4.18894e-006 6.41399e-007 -15.0017 1.68187e-007 -1.03112 -13.6507 -26.3156 8.52212 -1.62792 -14.3054 31.993 -22.552 -18.665 9.82211 -15.2508 2.40266 -6.05418e-007 -8.11127e-007 6.98897e-006 -1.88172e-007 -1.18323e-006 -1.49722e-007 -6.857e-007 -4.97528e-007 -7.38584e-008 3.18055e-015 0 -3.18055e-015 -6.05418e-007 -8.11127e-007 6.98897e-006 -1.88172e-007 -1.18323e-006 -1.49722e-007 -6.857e-007 -4.97528e-007 -7.38584e-008 -6.05418e-007 -8.11127e-007 6.98897e-006 -1.88172e-007 -1.18323e-006 -1.49722e-007 -6.857e-007 -4.97528e-007 -7.38584e-008 3.18055e-015 0 -3.18055e-015 -6.05418e-007 -8.11127e-007 6.98897e-006 -1.88172e-007 -1.18323e-006 -1.49722e-007 -6.857e-007 -4.97528e-007 -7.38584e-008 -6.05418e-007 -8.11127e-007 6.98897e-006 -1.88172e-007 -1.18323e-006 -1.49722e-007 -6.857e-007 -4.97528e-007 -7.38584e-008 6.67468 0.595596 -7.94153 107.616 15.1298 -46.7471 -0.993249 -5.15403 22.3549 35.6649 -48.9125 36.0379 -3.18055e-015 -7.95139e-016 -9.54166e-015 -4.41391e-031 -3.97569e-015 -6.36111e-015 -1.35125e-006 8.87409e-007 -5.01735e-007 -8.82781e-032 -7.95139e-016 -6.36111e-015 6.36111e-015 -2.46493e-014 -0 -3.18055e-015 1.59028e-015 -6.36111e-015 -1.35125e-006 8.87409e-007 -5.01735e-007 6.36111e-015 -2.46493e-014 -0 -3.18055e-015 1.59028e-015 -6.36111e-015 -1.35125e-006 8.87409e-007 -5.01735e-007 -8.82781e-032 -7.95139e-016 -6.36111e-015 6.36111e-015 -2.46493e-014 -0 -3.18055e-015 1.59028e-015 -6.36111e-015 -1.35125e-006 8.87409e-007 -5.01735e-007 6.36111e-015 -2.46493e-014 -0 -3.18055e-015 1.59028e-015 -6.36111e-015 -1.35125e-006 8.87409e-007 -5.01735e-007 100.422 -39.6114 111.811 35.3505 75.917 -41.8381 47.2334 35.4252 -70.597 -100.377 -39.3179 -112.038 -35.4849 75.894 41.9731 -47.6244 35.2174 70.8622 
-7.37499 20.0006 59.9692 -180 83.5004 -180 -0.124194 -2.36603 -0.417752 -0.266008 -4.73107 -0.841719 -0.266008 -4.73111 -0.841719 -2.07886e-006 -35.6771 1.33318e-007 -2.24049e-007 -15.0017 -1.33855e-007 -1.30269 -13.3348 -26.2686 8.52212 -1.62792 -14.3054 32.1024 -22.644 -18.8181 9.6107 -14.9969 2.35172 1.59028e-015 -4.77083e-015 3.18055e-015 -1.59028e-015 -3.18055e-015 -0 -0 -3.18055e-015 -0 1.59028e-015 0 3.18055e-015 4.77083e-015 7.95139e-015 3.18055e-015 1.59028e-015 -4.77083e-015 3.18055e-015 1.59028e-015 -5.56597e-015 -0 4.77083e-015 7.95139e-015 3.18055e-015 1.59028e-015 -4.77083e-015 3.18055e-015 1.59028e-015 -5.56597e-015 -0 1.59028e-015 0 3.18055e-015 4.77083e-015 7.95139e-015 3.18055e-015 1.59028e-015 -4.77083e-015 3.18055e-015 1.59028e-015 -5.56597e-015 -0 4.77083e-015 7.95139e-015 3.18055e-015 1.59028e-015 -4.77083e-015 3.18055e-015 1.59028e-015 -5.56597e-015 -0 6.11557 1.15047 -8.10976 108.407 15.6798 -46.4415 -1.64897 -4.56683 21.2942 35.2571 -49.0093 36.5754 -2.68257e-006 1.78409e-006 -1.02409e-006 -3.12537e-006 -1.79052e-006 -9.96777e-007 -3.12537e-006 -1.79052e-006 -9.96777e-007 -6.36111e-015 6.36111e-015 6.36111e-015 -2.68257e-006 1.78409e-006 -1.02409e-006 -3.12537e-006 -1.79052e-006 -9.96777e-007 -3.12537e-006 -1.79052e-006 -9.96777e-007 -2.68257e-006 1.78409e-006 -1.02409e-006 -3.12537e-006 -1.79052e-006 -9.96777e-007 -3.12537e-006 -1.79052e-006 -9.96777e-007 -6.36111e-015 6.36111e-015 6.36111e-015 -2.68257e-006 1.78409e-006 -1.02409e-006 -3.12537e-006 -1.79052e-006 -9.96777e-007 -3.12537e-006 -1.79052e-006 -9.96777e-007 -2.68257e-006 1.78409e-006 -1.02409e-006 -3.12537e-006 -1.79052e-006 -9.96777e-007 -3.12537e-006 -1.79052e-006 -9.96777e-007 100.979 -40.0262 112.152 35.3227 75.9057 -41.7922 46.6746 35.8848 -70.1835 -100.933 -39.7481 -112.365 -35.4569 75.8826 41.9264 -47.0477 35.689 70.4368 
-7.37512 20.0734 59.9362 -180 82.9993 -180 -0.122801 -2.5701 -0.418815 -0.264827 -5.13923 -0.844425 -0.264827 -5.13924 -0.844425 -7.59086e-006 -35.4019 -1.04379e-005 1.72113e-007 -15.0017 7.57839e-008 -1.57416 -13.0193 -26.2202 8.52212 -1.62792 -14.3054 32.2117 -22.7363 -18.971 9.39979 -14.7428 2.30186 -1.59028e-015 -1.03368e-014 3.18055e-015 -3.18055e-015 -1.11319e-014 -3.18055e-015 -3.18055e-015 -1.11319e-014 -0 -1.59028e-015 0 -0 -4.41391e-031 -7.95139e-015 -3.18055e-015 -3.18055e-015 -1.19271e-014 -3.18055e-015 -4.77083e-015 -1.19271e-014 -0 -4.41391e-031 -7.95139e-015 -3.18055e-015 -3.18055e-015 -1.19271e-014 -3.18055e-015 -4.77083e-015 -1.19271e-014 -0 -1.59028e-015 0 -0 -4.41391e-031 -7.95139e-015 -3.18055e-015 -3.18055e-015 -1.19271e-014 -3.18055e-015 -4.77083e-015 -1.19271e-014 -0 -4.41391e-031 -7.95139e-015 -3.18055e-015 -3.18055e-015 -1.19271e-014 -3.18055e-015 -4.77083e-015 -1.19271e-014 -0 5.55811 1.70659 -8.27256 109.197 16.2336 -46.1431 -2.29271 -3.96815 20.242 34.85 -49.1086 37.1127 1.33091e-006 -8.96646e-007 5.22525e-007 -6.36111e-015 -8.74653e-015 3.18055e-015 -3.18055e-015 -1.35174e-014 -1.59028e-015 3.18055e-015 3.18055e-015 1.59028e-015 1.33091e-006 -8.96646e-007 5.22525e-007 -3.18055e-015 -7.95139e-015 3.18055e-015 -3.18055e-015 -1.27222e-014 3.18055e-015 1.33091e-006 -8.96646e-007 5.22525e-007 -3.18055e-015 -7.95139e-015 3.18055e-015 -3.18055e-015 -1.27222e-014 3.18055e-015 3.18055e-015 3.18055e-015 1.59028e-015 1.33091e-006 -8.96646e-007 5.22525e-007 -3.18055e-015 -7.95139e-015 3.18055e-015 -3.18055e-015 -1.27222e-014 3.18055e-015 1.33091e-006 -8.96646e-007 5.22525e-007 -3.18055e-015 -7.95139e-015 3.18055e-015 -3.18055e-015 -1.27222e-014 3.18055e-015 101.542 -40.4375 112.499 35.293 75.8937 -41.7452 46.1082 36.3416 -69.7627 -101.497 -40.1748 -112.698 -35.4277 75.8709 41.8793 -46.4631 36.1575 70.0034 
-7.37526 20.1462 59.9029 -180 82.4982 -180 -0.121408 -2.77395 -0.419849 -0.263655 -5.54691 -0.847082 -0.263655 -5.54691 -0.847081 -4.03252e-006 -35.1267 -1.7798e-006 3.42952e-007 -15.0017 1.62108e-007 -1.84553 -12.704 -26.1702 8.52212 -1.62792 -14.3054 32.3208 -22.8289 -19.1238 9.18937 -14.4885 2.25298 -1.59028e-015 3.18055e-015 -0 -3.18055e-015 3.97569e-015 6.36111e-015 -1.59028e-015 3.97569e-015 -0 -4.41391e-032 -7.95139e-016 -3.18055e-015 -2.11868e-030 1.27222e-014 9.54166e-015 1.59028e-015 3.97569e-015 -0 -1.59028e-015 3.97569e-015 -0 -2.11868e-030 1.27222e-014 9.54166e-015 1.59028e-015 3.97569e-015 -0 -1.59028e-015 3.97569e-015 -0 -4.41391e-032 -7.95139e-016 -3.18055e-015 -2.11868e-030 1.27222e-014 9.54166e-015 1.59028e-015 3.97569e-015 -0 -1.59028e-015 3.97569e-015 -0 -2.11868e-030 1.27222e-014 9.54166e-015 1.59028e-015 3.97569e-015 -0 -1.59028e-015 3.97569e-015 -0 5.00228 2.26424 -8.42992 109.985 16.791 -45.8521 -2.92417 -3.35848 19.1985 34.4437 -49.2102 37.6497 1.32013e-006 -9.01204e-007 5.33164e-007 1.86384e-006 -1.20335e-006 -1.1627e-006 -5.43713e-007 3.02141e-007 1.69587e-006 0 3.97569e-015 -0 1.32013e-006 -9.01204e-007 5.33164e-007 1.86384e-006 -1.20335e-006 -1.1627e-006 -5.43713e-007 3.02141e-007 1.69587e-006 1.32013e-006 -9.01204e-007 5.33164e-007 1.86384e-006 -1.20335e-006 -1.1627e-006 -5.43713e-007 3.02141e-007 1.69587e-006 0 3.97569e-015 -0 1.32013e-006 -9.01204e-007 5.33164e-007 1.86384e-006 -1.20335e-006 -1.1627e-006 -5.43713e-007 3.02141e-007 1.69587e-006 1.32013e-006 -9.01204e-007 5.33164e-007 1.86384e-006 -1.20335e-006 -1.1627e-006 -5.43713e-007 3.02141e-007 1.69587e-006 102.112 -40.8452 112.853 35.2619 75.8814 -41.6973 45.5343 36.7954 -69.3343 -102.066 -40.5981 -113.039 -35.3968 75.8586 41.831 -45.8706 36.623 69.5621 
